<?xml version="1.0" encoding="UTF-8" standalone="no"?>
<!-- Created with Inkscape (http://www.inkscape.org/) -->

<svg
   width="137.54158mm"
   height="15.892201mm"
   viewBox="0 0 519.8422 60.065015"
   version="1.1"
   id="svg1"
   xml:space="preserve"
   xmlns="http://www.w3.org/2000/svg"
   xmlns:svg="http://www.w3.org/2000/svg"><defs
     id="defs1" /><g
     id="layer1"
     transform="translate(-262.14573,-304.7422)"><path
       d="m 268.06237,329.74396 q 5.91667,-5.91666 14.25,-5.91666 8.33333,0 14.20833,5.91666 5.91666,5.875 5.91666,14.20833 v 16.20833 q 0,2.125 -1.625,3.49999 -1.625,1.375 -3.79166,1.04167 -1.70834,-0.29167 -2.79167,-1.66667 -1.08333,-1.37499 -1.08333,-3.12499 v -15.95833 q 0,-4.5 -3.16667,-7.66666 -3.16666,-3.16667 -7.66666,-3.16667 -4.5,0 -7.70833,3.16667 -3.16667,3.16666 -3.16667,7.66666 v 16.20833 q 0,2.125 -1.625,3.49999 -1.625,1.375 -3.79166,1.04167 -1.70833,-0.29167 -2.79167,-1.66667 -1.08333,-1.37499 -1.08333,-3.12499 v -15.95833 q 0,-8.33333 5.91666,-14.20833 z m 44.54165,0.0833 q 6,-6 14.45833,-6 8.45833,0 14.45833,6 6.04166,5.99999 6.04166,14.45832 0,8.45833 -6.04166,14.5 -6,5.99999 -14.45833,5.99999 -8.45833,0 -14.45833,-5.99999 -6,-6.04167 -6,-14.5 0,-8.45833 6,-14.45832 z m 6.54167,22.37499 q 3.29166,3.29166 7.91666,3.29166 4.625,0 7.91666,-3.29166 3.29167,-3.29167 3.29167,-7.91667 0,-4.625 -3.29167,-7.87499 -3.29166,-3.29167 -7.91666,-3.29167 -4.625,0 -7.91666,3.29167 -3.25,3.24999 -3.25,7.87499 0,4.625 3.25,7.91667 z m 49.37497,2.79166 q 1.5,0.45833 2.41667,1.70833 0.91666,1.20834 0.91666,2.75 0,2.33334 -1.87499,3.75 -1.875,1.375 -4.08334,0.70833 -6.24999,-1.91666 -10.20833,-7.20833 -3.95833,-5.33333 -3.95833,-12.04166 V 323.8273 h -4 q -1.91666,0 -3.24999,-1.375 -1.375,-1.375 -1.375,-3.29167 0,-1.91666 1.375,-3.25 1.33333,-1.375 3.24999,-1.375 h 4 v -5.12499 q 0,-2.125 1.625,-3.5 1.625,-1.41667 3.79167,-1.08333 1.70833,0.29166 2.79166,1.70833 1.08334,1.375 1.08334,3.125 v 4.87499 h 3.91666 q 1.91667,0 3.25,1.375 1.375,1.33334 1.375,3.25 0,1.91667 -1.375,3.29167 -1.33333,1.375 -3.25,1.375 h -3.91666 v 20.83332 q 0,3.58333 2.08333,6.41667 2.125,2.83333 5.41666,3.91666 z m 45.41665,-16.66666 q 0.66667,2.20833 -0.75,4.08333 -1.375,1.875 -3.70833,1.875 h -26.37499 q 0.25,4.5 3.5,7.875 3.25,3.33333 7.66666,3.33333 4.04167,0 7.125,-2.54166 1.20833,-1 2.83333,-1 2.04167,0 3.375,1.41666 1.33333,1.41667 1.29167,3.375 -0.0417,1.91667 -1.58333,3.20833 -5.79167,4.83333 -13.04167,4.83333 -5.54166,0 -10.29166,-2.91666 -4.70833,-2.91667 -7.45833,-7.75 -2.70833,-4.875 -2.70833,-10.45833 h 0.0833 q 0.16667,-5.24999 2.875,-9.74999 2.70833,-4.54167 7.20833,-7.25 4.54167,-2.70833 9.79166,-2.83333 7,-0.16667 12.58333,3.91666 5.58333,4.08333 7.58333,10.58333 z m -27.04165,-1.58333 15.62499,-0.0833 q -1.95833,-2.08334 -4.75,-3 -2.79166,-0.91667 -5.83333,-0.29167 -2.54166,0.54167 -5.04166,3.375 z"
       id="text1"
       style="font-size:85.3333px;font-family:'Monice Demo';-inkscape-font-specification:'Monice Demo';fill:#ffffff;stroke-width:11.142"
       aria-label="note" /><path
       d="m 518.35799,337.03386 q 0,1.33333 1.33333,2.12499 1.375,0.75 3.54166,1.08334 2.16667,0.33333 4.79167,0.625 2.625,0.29166 5.25,0.95833 2.625,0.625 4.79166,1.70833 2.16667,1.04167 3.5,3.25 1.375,2.20833 1.375,5.33333 0,5.45833 -4.625,9 -4.58333,3.5 -12.16666,3.5 -4.25,0 -8.45833,-1.16667 -4.20833,-1.16666 -6.66666,-3.16666 -1.5,-1.20834 -1.70834,-3.125 -0.16666,-1.91667 1.04167,-3.41667 1.20833,-1.5 3.125,-1.66666 1.95833,-0.20834 3.41666,1.04166 2.29167,1.95833 6.375,2.45833 4.08333,0.45834 7.25,-0.54166 3.16666,-1.04167 3.16666,-2.91667 0,-1.375 -1.375,-2.16666 -1.33333,-0.83334 -3.49999,-1.20834 -2.125,-0.41666 -4.75,-0.75 -2.58333,-0.33333 -5.16667,-1.04166 -2.58333,-0.70833 -4.74999,-1.83333 -2.125,-1.125 -3.5,-3.33334 -1.33334,-2.25 -1.33334,-5.41666 0,-5.45833 4.625,-9 4.625,-3.54166 12.20833,-3.54166 4.20833,0 8.41666,1.16666 4.20834,1.16667 6.66667,3.16667 1.5,1.20833 1.66666,3.125 0.20834,1.91666 -1,3.41666 -1.29166,1.58334 -3.41666,1.91667 -2.125,0.33333 -3.125,-1.25 -0.5,-0.95833 -2.41667,-1.70833 -1.91666,-0.79167 -4.33333,-1 -2.41666,-0.25 -4.75,0 -2.33333,0.20833 -3.91666,1.375 -1.58333,1.125 -1.58333,3 z m 68.87497,21.41665 q 0.70833,1.79167 -0.125,3.58334 -0.79167,1.74999 -2.58333,2.41666 -0.75,0.29167 -1.66667,0.29167 -1.41667,0 -2.625,-0.79167 -1.16666,-0.79167 -1.70833,-2.16666 l -7.79166,-20.45833 -12.95833,7.91666 v 10.91667 q 0,1.91666 -1.375,3.29166 -1.33333,1.33333 -3.29167,1.33333 -1.95833,0 -3.29166,-1.33333 -1.33334,-1.33333 -1.33334,-3.29166 v -50.74998 q 0,-1.95834 1.33334,-3.29167 1.375,-1.375 3.29166,-1.375 1.95834,0 3.29167,1.375 1.375,1.33333 1.375,3.29167 v 28.95832 l 22.66665,-13.875 q 1.66667,-1 3.54167,-0.54166 1.875,0.41666 2.875,2.08333 1,1.66667 0.54167,3.54167 -0.45834,1.83333 -2.08334,2.83333 l -6.49999,4 z m 43.66665,-20.12499 q 0.66666,2.20833 -0.75,4.08333 -1.375,1.875 -3.70833,1.875 h -26.37499 q 0.25,4.5 3.5,7.875 3.24999,3.33333 7.66666,3.33333 4.04166,0 7.125,-2.54166 1.20833,-1 2.83333,-1 2.04166,0 3.375,1.41666 1.33333,1.41667 1.29166,3.375 -0.0417,1.91667 -1.58333,3.20833 -5.79166,4.83333 -13.04166,4.83333 -5.54167,0 -10.29166,-2.91666 -4.70833,-2.91667 -7.45833,-7.75 -2.70834,-4.875 -2.70834,-10.45833 h 0.0833 q 0.16666,-5.25 2.875,-9.74999 2.70833,-4.54167 7.20833,-7.25 4.54166,-2.70833 9.79166,-2.83333 7,-0.16667 12.58333,3.91666 5.58333,4.08333 7.58333,10.58333 z m -27.04166,-1.58333 15.625,-0.0833 q -1.95834,-2.08334 -4.75,-3 -2.79167,-0.91667 -5.83333,-0.29167 -2.54167,0.54167 -5.04167,3.375 z m 47.58332,18.24999 q 1.5,0.45833 2.41667,1.70833 0.91666,1.20834 0.91666,2.75 0,2.33334 -1.875,3.75 -1.875,1.375 -4.08333,0.70833 -6.25,-1.91666 -10.20833,-7.20833 -3.95833,-5.33333 -3.95833,-12.04166 v -20.83332 h -4 q -1.91666,0 -3.25,-1.375 -1.375,-1.375 -1.375,-3.29167 0,-1.91666 1.375,-3.25 1.33334,-1.375 3.25,-1.375 h 4 v -5.12499 q 0,-2.125 1.625,-3.5 1.625,-1.41667 3.79167,-1.08333 1.70833,0.29166 2.79166,1.70833 1.08333,1.375 1.08333,3.125 v 4.87499 h 3.91667 q 1.91667,0 3.25,1.375 1.375,1.33334 1.375,3.25 0,1.91667 -1.375,3.29167 -1.33333,1.375 -3.25,1.375 h -3.91667 v 20.83332 q 0,3.58333 2.08334,6.41667 2.125,2.83333 5.41666,3.91666 z m 35.79165,-3.04166 q 2.04166,0 3.375,1.41666 1.33333,1.41667 1.29166,3.375 -0.0417,1.91667 -1.58333,3.20833 -5.79167,4.83333 -13.04166,4.83333 -8.45833,0 -14.45833,-5.99999 -6,-6.04167 -6,-14.5 0,-8.45833 6,-14.45832 6,-6 14.45833,-6 7.29166,0 13.04166,4.79166 1.54167,1.29167 1.58333,3.25 0.0417,1.91667 -1.29166,3.375 -1.33334,1.41667 -3.375,1.41667 -1.625,0 -2.83333,-1 -3.08334,-2.54167 -7.08334,-2.54167 -4.62499,0 -7.91666,3.29167 -3.29166,3.24999 -3.29166,7.87499 0,4.625 3.29166,7.91667 3.29167,3.29166 7.91666,3.29166 4,0 7.08334,-2.54166 1.20833,-1 2.83333,-1 z m 29.87499,-28.12499 q 8.33333,0 14.24999,5.91666 5.91666,5.875 5.91666,14.20833 v 16.20833 q 0,2.125 -1.625,3.49999 -1.62499,1.375 -3.79166,1.04167 -1.70833,-0.29167 -2.79167,-1.66667 -1.08333,-1.37499 -1.08333,-3.12499 v -15.95833 q 0,-4.5 -3.20833,-7.66666 -3.16667,-3.16667 -7.66666,-3.16667 -4.5,0 -7.66667,3.16667 -3.16666,3.16666 -3.16666,7.66666 v 16.20833 q 0,2.125 -1.625,3.49999 -1.625,1.375 -3.79167,1.04167 -1.70833,-0.29167 -2.79166,-1.66667 -1.08334,-1.37499 -1.08334,-3.12499 v -50.49998 q 0,-1.95834 1.33334,-3.29167 1.375,-1.375 3.29166,-1.375 1.95833,0 3.29167,1.375 1.375,1.33333 1.375,3.29167 v 17.58332 q 4.95833,-3.16666 10.83333,-3.16666 z m 64.66664,14.20833 q 0.66667,2.20833 -0.75,4.08333 -1.41667,1.83333 -3.75,1.83333 -1.5,0 -2.75,-0.91667 -1.20833,-0.91666 -1.66666,-2.41666 -1.08334,-3.33333 -3.91667,-5.41667 -2.83333,-2.08333 -6.41666,-2.08333 -4.5,0 -7.70833,3.16667 -3.16667,3.16666 -3.16667,7.66666 v 16.20833 q 0,2.125 -1.625,3.54166 -1.625,1.375 -3.79166,1.04167 -1.70834,-0.29167 -2.79167,-1.66667 -1.08333,-1.41666 -1.08333,-3.16666 v -15.95833 q 0,-8.33333 5.91666,-14.20833 5.91667,-5.91666 14.25,-5.91666 6.70833,0 11.99999,4 5.33333,3.95833 7.25,10.20833 z"
       id="text2"
       style="font-size:85.3333px;font-family:'Monice Demo';-inkscape-font-specification:'Monice Demo';fill:#ffffff;stroke-width:11.142"
       aria-label="sketchr" /></g><g
     id="g5"
     transform="rotate(135,475.70095,177.994)"><path
       id="path4"
       style="display:inline;opacity:1;fill:#ffffff;stroke-width:11.142"
       d="m 526.85684,477.15841 36.81641,22.2871 c 5.32907,-8.23666 11.57662,-10.79102 18.02344,-12.12304 l 0.0215,-10.16406 H 568.3803 c 0.14829,0.51775 0.20507,1.03691 0.19141,1.54882 a 5.6089149,5.6089149 0 0 1 0.006,0.0918 5.6089149,5.6089149 0 0 1 -5.60938,5.60938 5.6089149,5.6089149 0 0 1 -5.60938,-5.60938 5.6089149,5.6089149 0 0 1 0.2461,-1.64063 z" /><path
       id="path8"
       style="display:inline;opacity:1;fill:#ffffff;stroke-width:11.142"
       d="m 526.83308,474.32973 66.34959,-0.0696 v -7.83405 l -23.91916,1.03836 7.53778,-17.88031 z" /><path
       id="rect16"
       style="opacity:1;fill:#ffffff;stroke-width:7.66285"
       d="m 584.54558,490.75746 10e-6,-13.62259 h 8.63707 l 10e-6,13.62259 z" /></g></svg>
